<?xml version="1.0" ?><!DOCTYPE svg  PUBLIC '-//W3C//DTD SVG 1.1//EN'  'http://www.w3.org/Graphics/SVG/1.1/DTD/svg11.dtd'><svg width="32px" height="32px" viewBox="0 0 32 32" style="fill-rule:evenodd;clip-rule:evenodd;stroke-linejoin:round;stroke-miterlimit:2;" version="1.1" xml:space="preserve" xmlns="http://www.w3.org/2000/svg" xmlns:serif="http://www.serif.com/" xmlns:xlink="http://www.w3.org/1999/xlink"><g transform="matrix(1,0,0,1,0,-192)"><g transform="matrix(0.923077,0,0,0.923077,4.23077,17.0769)"><circle cx="9.5" cy="202.5" r="6.5" style="fill:rgb(144,224,239);"/></g><g transform="matrix(0.833333,0,0,1,-0.833333,-6.2883e-13)"><path d="M25,216C25,215.47 24.747,214.961 24.297,214.586C23.847,214.211 23.237,214 22.6,214C19.155,214 12.845,214 9.4,214C8.763,214 8.153,214.211 7.703,214.586C7.253,214.961 7,215.47 7,216C7,217.222 7,218.778 7,220C7,220.53 7.253,221.039 7.703,221.414C8.153,221.789 8.763,222 9.4,222C12.845,222 19.155,222 22.6,222C23.237,222 23.847,221.789 24.297,221.414C24.747,221.039 25,220.53 25,220C25,218.778 25,217.222 25,216Z" style="fill:rgb(144,224,239);"/></g><g transform="matrix(1,0,0,1,-3,0)"><circle cx="24" cy="200" r="6" style="fill:rgb(144,224,239);"/></g><g transform="matrix(1,0,0,1,-3,0)"><path d="M24,216C24,215.204 23.684,214.441 23.121,213.879C22.559,213.316 21.796,213 21,213C18.129,213 12.871,213 10,213C9.204,213 8.441,213.316 7.879,213.879C7.316,214.441 7,215.204 7,216L7,220C7,220.796 7.316,221.559 7.879,222.121C8.441,222.684 9.204,223 10,223C12.871,223 18.129,223 21,223C21.796,223 22.559,222.684 23.121,222.121C23.684,221.559 24,220.796 24,220L24,216ZM22,216L22,220C22,220.265 21.895,220.52 21.707,220.707C21.52,220.895 21.265,221 21,221L10,221C9.735,221 9.48,220.895 9.293,220.707C9.105,220.52 9,220.265 9,220C9,220 9,216 9,216C9,215.735 9.105,215.48 9.293,215.293C9.48,215.105 9.735,215 10,215L21,215C21.265,215 21.52,215.105 21.707,215.293C21.895,215.48 22,215.735 22,216ZM17.591,197.182C17.08,197.063 16.547,197 16,197C12.137,197 9,200.137 9,204C9,207.863 12.137,211 16,211C18.861,211 21.323,209.28 22.409,206.818C22.92,206.937 23.453,207 24,207C27.863,207 31,203.863 31,200C31,196.137 27.863,193 24,193C21.139,193 18.676,194.72 17.591,197.182ZM17.056,199.112C16.716,199.039 16.362,199 16,199C13.24,199 11,201.24 11,204C11,206.76 13.24,209 16,209C18.015,209 19.753,207.806 20.544,206.088C18.428,204.883 17,202.607 17,200C17,199.699 17.019,199.402 17.056,199.112ZM24,195C26.76,195 29,197.24 29,200C29,202.76 26.76,205 24,205C21.24,205 19,202.76 19,200C19,197.24 21.24,195 24,195ZM24,202C24.552,202 25,202.448 25,203C25,203.552 24.552,204 24,204C23.448,204 23,203.552 23,203C23,202.448 23.448,202 24,202ZM23,197L23,200C23,200.552 23.448,201 24,201C24.552,201 25,200.552 25,200L25,197C25,196.448 24.552,196 24,196C23.448,196 23,196.448 23,197Z" style="fill:rgb(25,144,167);"/></g></g></svg>