<svg height="24px" width="24px" id="designs" xmlns="http://www.w3.org/2000/svg" viewBox="0 0 20 20"><path d="M17.64,7.31a.45.45,0,0,0-.08-.22,3.52,3.52,0,0,0-.36-.41,3.33,3.33,0,0,0-.28-.25,1.24,1.24,0,0,0-.51-.22,2.69,2.69,0,0,0-.4,0h-.35a2.08,2.08,0,0,1-.25,0c-.29,0-.57,0-.85,0l-.92,0-1,0-.93,0H10.12c-.55,0-1.11,0-1.66.07l-.79,0a2.63,2.63,0,0,0-1,.19A1.34,1.34,0,0,0,6.2,7,1,1,0,0,0,6,7.71v0a.7.7,0,0,0,0,.14c0,.56.07,1.12.11,1.69s0,1,.06,1.57a11.31,11.31,0,0,0,.29,3.23A4.4,4.4,0,0,0,7,15.52a2.29,2.29,0,0,0,.89.76A2.85,2.85,0,0,0,9,16.56l.55,0h.15c0,.53-.06,1.07-.08,1.6S9.57,19.39,9.56,20c0,1.1-.07,2.21,0,3.31a5.58,5.58,0,0,0,.12,1,1.4,1.4,0,0,0,.13.36,2.55,2.55,0,0,0,.27.48,2.06,2.06,0,0,0,.77.65,2.71,2.71,0,0,0,1,.22,3.34,3.34,0,0,0,.89-.06l.3-.09a1.65,1.65,0,0,0,.36-.22,1.74,1.74,0,0,0,.37-.4,2.66,2.66,0,0,0,.32-.85,5,5,0,0,0,.14-.88l0-.81c0-.27,0-.54,0-.81,0-.54-.08-1.09-.12-1.63S14,19.12,14,18.56c0-.24,0-.48-.06-.72s-.07-.51-.1-.76c0-.1,0-.2,0-.3.25,0,.51,0,.77,0a4.07,4.07,0,0,0,.7-.1,4.67,4.67,0,0,0,.66-.23,8.38,8.38,0,0,0,1-.59,2.31,2.31,0,0,0,.71-1,3.27,3.27,0,0,0,.3-1.4c0-.52,0-1,0-1.56s0-1,0-1.42,0-1.08,0-1.62c0-.37.06-.74.07-1.11A.52.52,0,0,0,17.64,7.31Zm-1.16,5.94a5.62,5.62,0,0,1,0,.58,3.25,3.25,0,0,1-.23.73,2.7,2.7,0,0,1-.2.31,3.24,3.24,0,0,1-.35.27,5.77,5.77,0,0,1-.56.27c-.18.05-.36.08-.53.11l-.72.07h.06a3.13,3.13,0,0,1-.53,0,.71.71,0,0,0-.6.26h0a.58.58,0,0,0-.5.53.54.54,0,0,0,.05.21c.06.38.09.76.13,1.14s0,.49.06.73.06.56.08.83c.05.56.09,1.12.15,1.67s.12,1.08.15,1.62a6.65,6.65,0,0,1-.05,1.26,3.33,3.33,0,0,1-.23.74.86.86,0,0,1-.1.16.39.39,0,0,0-.1.08l-.19,0a3.08,3.08,0,0,1-.43,0l-.22,0-.09,0-.17-.15a1.94,1.94,0,0,1-.21-.29,2.44,2.44,0,0,1-.1-.24,1.55,1.55,0,0,1,0-.21,9.16,9.16,0,0,1-.05-1.57c0-.55,0-1.1,0-1.66,0-1.18.07-2.36.19-3.53,0-.27,0-.53.08-.79a.54.54,0,0,0-.34-.48s0,0,0,0a.63.63,0,0,0-.34-.36,1,1,0,0,0-.5-.07,4.26,4.26,0,0,1-.51,0l-.51,0a1.28,1.28,0,0,1-.27-.05,1.34,1.34,0,0,1-.24-.12L8.3,15A3.72,3.72,0,0,1,8,14.53a5,5,0,0,1-.36-1.12,10.51,10.51,0,0,1,0-1.25c0-.47,0-.94,0-1.41s0-.93-.07-1.39a10.65,10.65,0,0,1,0-1.49s0,0,0,0a.2.2,0,0,0,0-.11,1.1,1.1,0,0,0,0-.18l.32,0,.84-.06c0,.46,0,.91.09,1.37,0,.21,0,.42,0,.63s.05.43.06.65c0,.41,0,.82,0,1.22s0,.79,0,1.18a.36.36,0,0,0,0,.09.51.51,0,0,0,0,.21.62.62,0,0,0,.68.54.62.62,0,0,0,.67-.54V12.7a.39.39,0,0,0-.06-.21c0-.39,0-.77,0-1.16s0-.82,0-1.23-.07-.86-.08-1.29,0-1,0-1.46l1.07,0h.18c0,.45,0,.89,0,1.34l0,1.45v.72c0,.23,0,.47,0,.7s0,.48.05.72,0,.4,0,.6a.59.59,0,0,0,.64.51c.32,0,.66-.23.64-.51s0-.38,0-.57l0-.71c0-.24,0-.48,0-.73s0-.48,0-.73c0-.48,0-1,0-1.43s0-.92,0-1.38h1.05c0,.52,0,1,.08,1.54s.1,1,.13,1.57,0,1,.07,1.48a8.13,8.13,0,0,0,.07,1.1.54.54,0,0,0,.31.32.81.81,0,0,0,.51,0,.61.61,0,0,0,.39-.24.44.44,0,0,0,.08-.33v.05a2,2,0,0,0,0-.24c0-.13,0-.26,0-.4s0-.45-.05-.67c0-.46,0-.92-.06-1.38s-.08-1-.12-1.43,0-1,0-1.43h.16a2,2,0,0,0,.35,0H16l.15.13a2.07,2.07,0,0,1,.19.25.66.66,0,0,0,.15.14c0,.53,0,1,0,1.58s0,1.08,0,1.63,0,1,0,1.45ZM26,14.74a11,11,0,0,0-.35-1.61c-.16-.5-.33-1-.46-1.51s-.28-1-.45-1.52c-.09-.25-.18-.51-.29-.75s-.24-.5-.36-.74a6.3,6.3,0,0,0-.45-.8c-.15-.22-.31-.44-.47-.65a5.69,5.69,0,0,0-.57-.63,2.31,2.31,0,0,0-.83-.46A1.79,1.79,0,0,0,21.23,6a3.62,3.62,0,0,0-.93.15.82.82,0,0,0-.42.26.58.58,0,0,0-.08.31s0,0,0,.06c0,.58,0,1.16-.07,1.73s0,1.12,0,1.67c0,1.13.13,2.25.17,3.38,0,.55,0,1.11,0,1.67s-.05,1.08-.08,1.62,0,1.09,0,1.64,0,1.08,0,1.63,0,1.06.07,1.6c0,.25,0,.5,0,.75s0,.43,0,.64a7.51,7.51,0,0,0,0,1.16,2.84,2.84,0,0,0,.36,1.11,1.45,1.45,0,0,0,.64.46,1.66,1.66,0,0,0,.67.12c.12,0,.25,0,.38,0a2.45,2.45,0,0,0,.46,0,2.67,2.67,0,0,0,.4-.13,2.43,2.43,0,0,0,.49-.29,3.6,3.6,0,0,0,.4-.28c.13-.12.25-.25.36-.37a1.37,1.37,0,0,0,.2-.35.41.41,0,0,0,0-.09,2.37,2.37,0,0,0,.26-.56c.05-.2.13-.4.17-.6a6.26,6.26,0,0,0,.1-.74,5,5,0,0,0,0-.77,5,5,0,0,0-.18-.94q-.09-.35-.15-.69c-.08-.42-.2-.82-.32-1.23-.05-.14-.06-.29-.11-.44s0-.06,0-.09a.27.27,0,0,0,.08-.07s0,0,0,0l.23-.17a2.91,2.91,0,0,0,.55-.49c.15-.2.28-.41.41-.62a5.13,5.13,0,0,0,.33-.76A2.77,2.77,0,0,0,26,14.74ZM22.21,24.82l0,0h0Zm0,0h0l.08-.05Zm2.32-9.33a4.83,4.83,0,0,1-.16.5,4.81,4.81,0,0,1-.2.53,3.27,3.27,0,0,1-.32.5,3.54,3.54,0,0,1-.42.35,1.29,1.29,0,0,0-.42.38s0,0,0,.06a.49.49,0,0,0-.32.46,1.28,1.28,0,0,0,.1.43,1.31,1.31,0,0,1,.1.32,1.31,1.31,0,0,0,.06.27c0,.1.07.2.09.3a5.45,5.45,0,0,1,.14.58c.1.47.25.94.35,1.42a4.43,4.43,0,0,1,0,1.26c0,.18-.09.35-.14.53a4,4,0,0,1-.21.54,2,2,0,0,1-.26.41,1.59,1.59,0,0,1-.24.2,3.62,3.62,0,0,1-.32.22.66.66,0,0,1-.19.09l-.07,0-.49,0,0,0h0l0-.05a2.69,2.69,0,0,1-.17-.55c0-.36-.05-.71-.06-1.08,0-.2,0-.4,0-.61s0-.5,0-.75c0-.52-.07-1.05-.09-1.57s0-1.08,0-1.62c0-1.11,0-2.21,0-3.32s0-2.25-.09-3.38c0-.84-.11-1.69-.1-2.53s.08-1.49.14-2.24l.07,0h.07l.09,0,.15.08a1.63,1.63,0,0,1,.31.27l.06.06,0,0a6.53,6.53,0,0,1,.59.71,5.43,5.43,0,0,1,.42.68v0a.41.41,0,0,1,.05.09l0-.09c.1.2.2.4.29.6a5,5,0,0,1,.24.6c.16.43.3.87.42,1.31s.22.88.34,1.32c.05.21.13.41.18.61s.11.44.15.66.08.49.1.74A4.46,4.46,0,0,1,24.56,15.47ZM22.85,8.9h0Z" transform="translate(-6 -6)"/></svg>