<svg width="20px" height="20px" viewBox="0 0 32 32" style="fill-rule:evenodd;clip-rule:evenodd;stroke-linejoin:round;stroke-miterlimit:2;" version="1.1" xmlns="http://www.w3.org/2000/svg"><g transform="matrix(1,0,0,1,-432,-384)"><g transform="matrix(1.06066,-1.06066,1.06066,1.06066,-448.139,458.483)"><circle cx="450" cy="393" r="8" style="fill:rgb(144,224,239);"/></g><g transform="matrix(0.707107,-0.707107,0.606092,0.606092,-108.867,476.872)"><path d="M450,411.167C450,410.857 449.895,410.561 449.707,410.342C449.52,410.123 449.265,410 449,410C448.389,410 447.611,410 447,410C446.735,410 446.48,410.123 446.293,410.342C446.105,410.561 446,410.857 446,411.167C446,412.126 446,413.514 446,414.695C446,415.307 446.208,415.893 446.579,416.325C446.949,416.757 447.452,417 447.975,417C447.992,417 448.008,417 448.025,417C448.548,417 449.051,416.757 449.421,416.325C449.792,415.893 450,415.307 450,414.695C450,413.514 450,412.126 450,411.167Z" style="fill:rgb(144,224,239);"/></g><path d="M434.421,403.945L433.977,404.389C433.414,404.952 433.098,405.715 433.098,406.51C433.098,407.306 433.414,408.069 433.977,408.632C434.642,409.297 435.433,410.088 436.098,410.753C436.661,411.316 437.424,411.632 438.219,411.632C439.015,411.632 439.778,411.316 440.341,410.753C440.691,410.403 441.039,410.055 441.039,410.055L441.044,410.046C445.458,411.861 450.673,411.145 454.456,407.898L455.072,408.514L455,408.586C454.625,408.961 454.414,409.47 454.414,410C454.414,410.53 454.625,411.039 455,411.414C455.581,411.995 456.423,412.837 457.139,413.553C457.697,414.111 458.454,414.424 459.243,414.424C460.032,414.424 460.789,414.111 461.347,413.553C461.358,413.541 461.37,413.53 461.381,413.518C461.939,412.96 462.253,412.203 462.253,411.414C462.253,410.625 461.939,409.868 461.381,409.31L459.243,407.172C458.868,406.797 458.359,406.586 457.828,406.586C457.332,406.586 456.855,406.77 456.488,407.101L455.87,406.484C459.117,402.701 459.834,397.488 458.02,393.074L458.028,393.066C458.083,393.011 458.375,392.719 458.726,392.368C459.288,391.806 459.604,391.043 459.604,390.247C459.604,389.451 459.288,388.688 458.726,388.126L456.604,386.004C456.042,385.442 455.279,385.126 454.483,385.126C453.687,385.126 452.924,385.442 452.362,386.004L451.918,386.448C447.032,383.951 440.892,384.746 436.805,388.833L436.805,388.833C432.719,392.919 431.924,399.059 434.421,403.945ZM457.828,408.586C457.828,408.586 459.967,410.724 459.967,410.724C460.15,410.907 460.253,411.156 460.253,411.414C460.253,411.673 460.15,411.921 459.967,412.104L459.932,412.139C459.749,412.322 459.501,412.424 459.243,412.424C458.984,412.424 458.736,412.322 458.553,412.139L456.414,410L457.828,408.586ZM435.391,405.803L438.927,409.339C438.739,409.526 438.485,409.632 438.219,409.632C437.954,409.632 437.7,409.526 437.512,409.339L435.391,407.217C435.203,407.03 435.098,406.776 435.098,406.51C435.098,406.245 435.204,405.991 435.391,405.803ZM453.776,390.247C449.483,385.954 442.512,385.954 438.22,390.247L438.219,390.247C433.927,394.54 433.927,401.51 438.219,405.803C442.274,409.858 448.717,410.083 453.037,406.479L450.119,403.561L448.705,404.975C448.142,405.537 447.379,405.854 446.583,405.854C445.788,405.854 445.025,405.537 444.462,404.975L439.219,399.732C438.438,398.951 438.438,397.685 439.219,396.904L444.876,391.247C445.657,390.466 446.924,390.466 447.705,391.247L452.947,396.49C453.51,397.052 453.826,397.815 453.826,398.611C453.826,399.407 453.51,400.17 452.947,400.732L451.533,402.146L454.451,405.064C458.055,400.745 457.83,394.302 453.776,390.247ZM451.533,399.318L447.291,403.561C447.103,403.748 446.849,403.854 446.583,403.854C446.318,403.854 446.064,403.748 445.876,403.561L440.634,398.318L446.291,392.661L451.533,397.904C451.721,398.091 451.826,398.346 451.826,398.611C451.826,398.876 451.721,399.13 451.533,399.318ZM443.109,398.672L445.23,400.793C445.62,401.183 446.254,401.183 446.644,400.793C447.034,400.403 447.034,399.769 446.644,399.379L444.523,397.257C444.133,396.867 443.499,396.867 443.109,397.257C442.718,397.648 442.718,398.281 443.109,398.672ZM445.23,396.55L447.351,398.672C447.741,399.062 448.375,399.062 448.765,398.672C449.156,398.281 449.156,397.648 448.765,397.257L446.644,395.136C446.254,394.746 445.62,394.746 445.23,395.136C444.84,395.526 444.84,396.16 445.23,396.55ZM457.311,390.954L453.776,387.419C453.963,387.231 454.218,387.126 454.483,387.126C454.748,387.126 455.002,387.231 455.19,387.418L457.311,389.54C457.499,389.727 457.604,389.982 457.604,390.247C457.604,390.512 457.499,390.767 457.311,390.954Z" style="fill:rgb(25,144,167);"/></g></svg>